<?xml version="1.0" encoding="utf-8"?>
<!-- Generator: Adobe Illustrator 21.0.0, SVG Export Plug-In . SVG Version: 6.00 Build 0)  -->
<svg version="1.1" id="Layer_1" xmlns="http://www.w3.org/2000/svg" xmlns:xlink="http://www.w3.org/1999/xlink" x="0px" y="0px"
	 viewBox="0 0 299.2 62.9" style="enable-background:new 0 0 299.2 62.9;" xml:space="preserve">
<style type="text/css">
	.st0{fill:#62C3A6;}
	.st1{opacity:0.3;enable-background:new    ;}
	.st2{clip-path:url(#SVGID_2_);fill:url(#SVGID_3_);}
	.st3{fill:#F3F3F3;}
	.st4{fill:#4BBD96;}
</style>
<g>
	<rect class="st0" width="62.9" height="62.9"/>
	<g class="st1">
		<g>
			<defs>
				<rect id="SVGID_1_" width="62.9" height="62.9"/>
			</defs>
			<clipPath id="SVGID_2_">
				<use xlink:href="#SVGID_1_"  style="overflow:visible;"/>
			</clipPath>
			
				<linearGradient id="SVGID_3_" gradientUnits="userSpaceOnUse" x1="20.7201" y1="45.576" x2="50.9805" y2="9.2634" gradientTransform="matrix(1 0 0 -1 0 64)">
				<stop  offset="0" style="stop-color:#000000"/>
				<stop  offset="1" style="stop-color:#FFFFFF"/>
			</linearGradient>
			<polygon class="st2" points="12,36.8 15.6,29.8 19.2,34.8 27.8,15 33.3,32 37.1,25.1 41.8,33.5 47.8,23.7 92.6,78.4 88.4,70.8 
				84.2,83.5 79.1,71.1 74.6,89.5 69.4,64.8 61.7,81.8 57.2,74.8 53.6,78.4 			"/>
		</g>
	</g>
	<polygon class="st3" points="27.8,23.3 20.1,40.2 15.7,33.2 12,36.8 15.6,29.8 19.2,34.8 27.8,15 33.3,32 37.1,25.1 41.8,33.5 
		47.8,23.7 51,36.8 46.9,29.2 42.6,41.9 37.5,29.5 33,48 	"/>
</g>
<g>
	<g>
		<path class="st4" d="M81.5,49.4c-0.3-0.3-0.5-0.7-0.5-1.2V24.7c0-0.5,0.2-0.8,0.5-1.1c0.3-0.3,0.7-0.5,1.1-0.5
			c0.5,0,0.8,0.2,1.2,0.5c0.3,0.3,0.5,0.7,0.5,1.1v0.9C86,23.9,88,23,90.4,23c1.5,0,2.9,0.4,4.2,1.1c1.3,0.7,2.4,1.8,3.2,3.3
			c0.8,1.4,1.2,3.1,1.2,5s-0.4,3.6-1.2,5c-0.8,1.4-1.9,2.5-3.2,3.3c-1.3,0.7-2.7,1.1-4.2,1.1c-2.3,0-4.4-0.9-6.1-2.7v9.1
			c0,0.5-0.2,0.9-0.5,1.2s-0.7,0.5-1.2,0.5C82.2,49.9,81.8,49.7,81.5,49.4z M94.1,37.2c1.1-1.1,1.6-2.7,1.6-4.7s-0.5-3.6-1.6-4.7
			s-2.5-1.7-4.2-1.7c-1.1,0-2.1,0.2-3.1,0.7s-1.8,1.1-2.5,1.9v7.5c0.7,0.8,1.6,1.5,2.5,1.9c1,0.5,2,0.7,3.1,0.7
			C91.6,38.8,93.1,38.3,94.1,37.2z"/>
		<path class="st4" d="M104,41.2c-0.3-0.3-0.5-0.7-0.5-1.1V16.9c0-0.5,0.2-0.8,0.5-1.2s0.7-0.5,1.1-0.5c0.5,0,0.9,0.2,1.2,0.5
			c0.3,0.3,0.5,0.7,0.5,1.2V40c0,0.5-0.2,0.8-0.5,1.1s-0.7,0.5-1.2,0.5C104.7,41.7,104.3,41.5,104,41.2z"/>
		<path class="st4" d="M114.1,41.2c-0.9-0.4-1.6-1.1-2.1-1.9c-0.5-0.8-0.8-1.8-0.8-2.8c0-1.8,0.7-3.2,2.1-4.2s3.4-1.6,6.1-1.6h4.3
			v-0.3c0-1.6-0.4-2.7-1.2-3.4s-2-1-3.6-1c-0.9,0-1.7,0.1-2.4,0.2s-1.5,0.4-2.3,0.6c-0.2,0-0.3,0.1-0.5,0.1c-0.4,0-0.7-0.1-0.9-0.4
			c-0.3-0.3-0.4-0.6-0.4-1c0-0.6,0.3-1.1,0.9-1.4c2-0.9,4.1-1.3,6.2-1.3c1.6,0,3,0.3,4.2,1c1.1,0.7,2,1.5,2.5,2.6s0.8,2.2,0.8,3.4
			v10.1c0,0.5-0.2,0.8-0.5,1.1s-0.7,0.5-1.2,0.5s-0.8-0.2-1.1-0.5s-0.5-0.7-0.5-1.1V39c-1.8,1.8-4,2.7-6.7,2.7
			C116,41.9,115,41.7,114.1,41.2z M121.3,38.2c1-0.5,1.8-1.1,2.5-1.9v-3h-3.9c-3.6,0-5.4,0.9-5.4,2.8c0,0.9,0.3,1.5,0.9,2.1
			c0.6,0.5,1.6,0.8,2.9,0.8C119.3,39,120.3,38.8,121.3,38.2z"/>
		<path class="st4" d="M135.1,49.4c-0.3-0.3-0.4-0.7-0.4-1.1c0-0.2,0-0.4,0.1-0.6l2.3-6l-6.7-16.3c-0.1-0.2-0.1-0.5-0.1-0.7
			c0-0.5,0.2-0.8,0.5-1.2c0.3-0.3,0.7-0.5,1.1-0.5c0.3,0,0.6,0.1,0.9,0.3c0.3,0.2,0.5,0.4,0.6,0.7l5.5,13.6l5.6-13.5
			c0.3-0.7,0.8-1.1,1.5-1.1c0.5,0,0.8,0.2,1.1,0.5s0.5,0.7,0.5,1.2c0,0.2,0,0.4-0.1,0.6l-9.7,23.4c-0.3,0.7-0.8,1.1-1.5,1.1
			C135.7,49.9,135.4,49.7,135.1,49.4z"/>
		<path class="st4" d="M151.7,41.2c-0.3-0.3-0.5-0.7-0.5-1.1V16.9c0-0.5,0.2-0.8,0.5-1.2s0.7-0.5,1.1-0.5c0.5,0,0.9,0.2,1.2,0.5
			s0.5,0.7,0.5,1.2V40c0,0.5-0.2,0.8-0.5,1.1s-0.7,0.5-1.2,0.5C152.4,41.7,152,41.5,151.7,41.2z"/>
		<path class="st4" d="M160.4,19.1c-0.4-0.4-0.5-0.8-0.5-1.3v-0.1c0-0.5,0.2-0.9,0.5-1.3c0.4-0.4,0.8-0.5,1.3-0.5h0.2
			c0.5,0,0.9,0.2,1.3,0.5c0.4,0.4,0.5,0.8,0.5,1.3v0.1c0,0.5-0.2,0.9-0.5,1.3c-0.4,0.4-0.8,0.5-1.3,0.5h-0.2
			C161.2,19.6,160.7,19.4,160.4,19.1z M160.6,41.2c-0.3-0.3-0.5-0.7-0.5-1.1V24.8c0-0.5,0.2-0.8,0.5-1.2c0.3-0.3,0.7-0.5,1.1-0.5
			c0.5,0,0.9,0.2,1.2,0.5s0.5,0.7,0.5,1.2v15.3c0,0.5-0.2,0.8-0.5,1.1s-0.7,0.5-1.2,0.5C161.3,41.7,160.9,41.5,160.6,41.2z"/>
		<path class="st4" d="M168.4,40.3c-0.4-0.3-0.6-0.7-0.6-1.2c0-0.4,0.1-0.7,0.4-1c0.3-0.3,0.6-0.4,1-0.4c0.2,0,0.4,0,0.6,0.1
			c0.8,0.3,1.5,0.6,2.3,0.8s1.6,0.3,2.6,0.3c2.6,0,4-0.8,4-2.5c0-0.5-0.3-1-0.9-1.2c-0.6-0.3-1.6-0.6-3-1c-1.4-0.3-2.6-0.7-3.5-1
			c-0.9-0.4-1.7-0.9-2.4-1.6c-0.7-0.7-1-1.7-1-2.9c0-1.7,0.6-3,1.8-4.1c1.2-1,2.9-1.6,5.2-1.6c1.8,0,3.6,0.3,5.2,0.9
			c0.3,0.1,0.6,0.3,0.8,0.5s0.3,0.5,0.3,0.8c0,0.4-0.1,0.7-0.4,1s-0.6,0.4-1,0.4c-0.1,0-0.3,0-0.5-0.1c-1.4-0.4-2.7-0.6-4.1-0.6
			c-1.3,0-2.3,0.2-3,0.7s-1.1,1.1-1.1,1.8c0,0.7,0.3,1.2,1,1.6c0.7,0.3,1.7,0.7,3.1,1c1.4,0.4,2.5,0.7,3.4,1.1
			c0.9,0.3,1.6,0.9,2.3,1.6c0.6,0.7,0.9,1.7,0.9,3c0,1.5-0.6,2.8-1.8,3.8s-2.9,1.5-5.1,1.5C172.5,41.9,170.4,41.3,168.4,40.3z"/>
		<path class="st4" d="M187.1,37.2V26.1h-2.5c-0.2,0-0.3-0.1-0.5-0.2c-0.1-0.1-0.2-0.3-0.2-0.5s0.1-0.4,0.3-0.6l4.8-4.7
			c0.2-0.2,0.4-0.3,0.6-0.3s0.4,0.1,0.5,0.2s0.2,0.3,0.2,0.5v2.9h4c0.4,0,0.7,0.1,1,0.4s0.4,0.6,0.4,1s-0.1,0.7-0.4,1
			c-0.3,0.3-0.6,0.4-1,0.4h-4V37c0,0.9,0.2,1.5,0.7,1.8c0.4,0.2,1,0.4,1.7,0.4c0.5,0,0.9-0.1,1.4-0.2c0.1,0,0.2,0,0.3-0.1
			c0.1,0,0.2,0,0.4,0c0.3,0,0.6,0.1,0.9,0.4c0.3,0.2,0.4,0.6,0.4,0.9c0,0.5-0.3,1-0.8,1.2c-0.9,0.4-1.9,0.6-3,0.6
			C188.8,41.9,187.1,40.3,187.1,37.2z"/>
		<path class="st4" d="M199.9,19.1c-0.4-0.4-0.5-0.8-0.5-1.3v-0.1c0-0.5,0.2-0.9,0.5-1.3c0.4-0.4,0.8-0.5,1.3-0.5h0.2
			c0.5,0,0.9,0.2,1.3,0.5c0.4,0.4,0.5,0.8,0.5,1.3v0.1c0,0.5-0.2,0.9-0.5,1.3c-0.4,0.4-0.8,0.5-1.3,0.5h-0.2
			C200.6,19.6,200.2,19.4,199.9,19.1z M200.1,41.2c-0.3-0.3-0.5-0.7-0.5-1.1V24.8c0-0.5,0.2-0.8,0.5-1.2c0.3-0.3,0.7-0.5,1.1-0.5
			c0.5,0,0.9,0.2,1.2,0.5s0.5,0.7,0.5,1.2v15.3c0,0.5-0.2,0.8-0.5,1.1s-0.7,0.5-1.2,0.5S200.4,41.5,200.1,41.2z"/>
		<path class="st4" d="M210.3,41.2c-0.3-0.3-0.5-0.7-0.5-1.1v-14h-2.1c-0.4,0-0.7-0.1-1-0.4s-0.4-0.6-0.4-1s0.1-0.7,0.4-1
			c0.3-0.3,0.6-0.4,1-0.4h2.1v-2.1c0-1.4,0.3-2.6,0.8-3.5s1.2-1.6,2-2s1.7-0.6,2.6-0.6c1.1,0,2.2,0.2,3.1,0.7
			c0.2,0.1,0.4,0.3,0.6,0.5c0.2,0.2,0.2,0.5,0.2,0.7c0,0.4-0.1,0.7-0.4,0.9s-0.6,0.4-0.9,0.4c-0.3,0-0.5,0-0.8-0.1
			c-0.6-0.1-0.9-0.1-1-0.1c-1,0-1.7,0.2-2.2,0.7s-0.7,1.3-0.7,2.5v2h4.5c0.4,0,0.7,0.1,1,0.4s0.4,0.6,0.4,1s-0.1,0.7-0.4,1
			c-0.3,0.3-0.6,0.4-1,0.4h-4.5v14c0,0.5-0.2,0.8-0.5,1.1s-0.7,0.5-1.2,0.5C211,41.7,210.6,41.5,210.3,41.2z"/>
		<path class="st4" d="M225.1,49.4c-0.3-0.3-0.4-0.7-0.4-1.1c0-0.2,0-0.4,0.1-0.6l2.3-6l-6.7-16.3c-0.1-0.2-0.1-0.5-0.1-0.7
			c0-0.5,0.2-0.8,0.5-1.2c0.3-0.3,0.7-0.5,1.1-0.5c0.3,0,0.6,0.1,0.9,0.3c0.3,0.2,0.5,0.4,0.6,0.7l5.5,13.6l5.6-13.5
			c0.3-0.7,0.8-1.1,1.5-1.1c0.5,0,0.8,0.2,1.1,0.5s0.5,0.7,0.5,1.2c0,0.2,0,0.4-0.1,0.6l-9.7,23.4c-0.3,0.7-0.8,1.1-1.5,1.1
			C225.7,49.9,225.4,49.7,225.1,49.4z"/>
		<path class="st4" d="M240.1,41c-0.4-0.4-0.6-0.9-0.6-1.4v-0.2c0-0.5,0.2-1,0.6-1.4s0.9-0.6,1.4-0.6h0.4c0.5,0,1,0.2,1.4,0.6
			s0.6,0.9,0.6,1.4v0.2c0,0.5-0.2,1-0.6,1.4s-0.9,0.6-1.4,0.6h-0.4C240.9,41.6,240.4,41.4,240.1,41z"/>
		<path class="st4" d="M249.6,41.2c-0.3-0.3-0.5-0.7-0.5-1.1V24.8c0-0.5,0.2-0.8,0.5-1.2c0.3-0.3,0.7-0.5,1.1-0.5
			c0.5,0,0.8,0.2,1.2,0.5c0.3,0.3,0.5,0.7,0.5,1.2v1.5c0.7-1,1.5-1.7,2.4-2.4c0.9-0.6,2.2-0.9,3.7-0.9c1.3,0,2.5,0.4,3.4,1.1
			s1.6,1.6,2,2.6c1.5-2.4,3.7-3.7,6.6-3.7c1.3,0,2.4,0.3,3.3,1s1.6,1.5,2,2.6c0.4,1,0.6,2.1,0.6,3.3v10.3c0,0.5-0.2,0.8-0.5,1.1
			s-0.7,0.5-1.2,0.5s-0.8-0.2-1.1-0.5s-0.5-0.7-0.5-1.1v-9.6c0-1.5-0.3-2.7-0.8-3.4c-0.5-0.7-1.5-1.1-2.8-1.1c-1.2,0-2.2,0.3-3,0.9
			s-1.5,1.5-2.1,2.5v10.7c0,0.5-0.2,0.8-0.5,1.1s-0.7,0.5-1.2,0.5s-0.8-0.2-1.1-0.5c-0.3-0.3-0.5-0.7-0.5-1.1v-9.6
			c0-1.5-0.3-2.7-0.8-3.4c-0.5-0.7-1.5-1.1-2.8-1.1c-1.2,0-2.2,0.3-3,0.9s-1.5,1.5-2.1,2.5v10.7c0,0.5-0.2,0.8-0.5,1.1
			s-0.7,0.5-1.2,0.5C250.2,41.7,249.9,41.5,249.6,41.2z"/>
		<path class="st4" d="M283.2,39.4c-1.6-1.7-2.4-4-2.4-7c0-1.7,0.3-3.2,0.9-4.7c0.6-1.4,1.6-2.6,2.9-3.5s2.9-1.3,4.7-1.3
			c1.8,0,3.3,0.4,4.6,1.2c1.3,0.8,2.3,1.9,2.9,3.3c0.7,1.4,1,2.9,1,4.5c0,0.5-0.1,0.8-0.4,1.1s-0.7,0.5-1.2,0.5H284
			c0.2,1.7,0.8,3,1.9,3.9c1,0.9,2.5,1.4,4.4,1.4c1,0,1.9-0.1,2.6-0.3s1.5-0.5,2.2-0.8c0.2-0.1,0.4-0.1,0.6-0.1c0.4,0,0.7,0.1,1,0.4
			c0.3,0.3,0.4,0.6,0.4,1c0,0.5-0.3,1-0.9,1.3c-0.9,0.5-1.8,0.9-2.7,1.2s-2.1,0.4-3.5,0.4C287.1,41.9,284.8,41,283.2,39.4z
			 M294.5,30.9c-0.1-1.2-0.4-2.1-0.9-2.9s-1.2-1.4-2-1.7c-0.8-0.4-1.6-0.6-2.4-0.6s-1.6,0.2-2.4,0.6s-1.4,0.9-2,1.7
			c-0.5,0.8-0.8,1.8-0.9,2.9H294.5z"/>
	</g>
</g>
</svg>
